<svg width="235" height="661" viewBox="0 0 235 661" fill="none" xmlns="http://www.w3.org/2000/svg">
<path d="M0.0984251 649.738C-0.322495 651.34 0.63536 652.981 2.23786 653.402L28.352 660.261C29.9545 660.682 31.5948 659.724 32.0157 658.121C32.4367 656.519 31.4788 654.879 29.8763 654.458L6.66372 648.361L12.7609 625.148C13.1818 623.545 12.2239 621.905 10.6214 621.484C9.01894 621.063 7.37864 622.021 6.95772 623.624L0.0984251 649.738ZM4.51281 653.091C7.03821 651.616 9.5387 650.133 12.0145 648.642L8.91936 643.502C6.46681 644.979 3.98949 646.448 1.48719 647.909L4.51281 653.091ZM26.5739 639.603C31.4396 636.488 36.2033 633.341 40.8668 630.164L37.4881 625.205C32.8727 628.35 28.1569 631.466 23.339 634.55L26.5739 639.603ZM54.879 620.306C59.5629 616.903 64.1381 613.468 68.6064 610.002L64.9287 605.261C60.5108 608.688 55.9861 612.086 51.3526 615.451L54.879 620.306ZM81.9394 599.306C86.4089 595.598 90.7625 591.857 95.0023 588.084L91.0141 583.602C86.8262 587.328 82.525 591.024 78.1081 594.689L81.9394 599.306ZM107.52 576.545C111.734 572.519 115.825 568.46 119.795 564.372L115.491 560.192C111.573 564.226 107.535 568.232 103.375 572.207L107.52 576.545ZM131.474 551.876C135.345 547.569 139.09 543.232 142.711 538.867L138.092 535.037C134.523 539.34 130.83 543.617 127.012 547.864L131.474 551.876ZM153.416 525.409C156.903 520.834 160.26 516.232 163.491 511.604L158.571 508.169C155.389 512.728 152.081 517.263 148.644 521.772L153.416 525.409ZM173.059 497.25C176.158 492.376 179.122 487.477 181.957 482.556L176.757 479.561C173.967 484.406 171.047 489.231 167.995 494.031L173.059 497.25ZM190.172 467.537C192.839 462.397 195.369 457.236 197.767 452.059L192.322 449.537C189.962 454.634 187.471 459.714 184.846 464.775L190.172 467.537ZM204.639 436.307C206.821 430.983 208.87 425.646 210.789 420.298L205.141 418.271C203.252 423.537 201.236 428.791 199.087 434.031L204.639 436.307ZM216.238 403.981C217.941 398.476 219.514 392.963 220.96 387.447L215.156 385.926C213.732 391.359 212.183 396.787 210.506 402.207L216.238 403.981ZM224.952 370.749C226.167 365.133 227.257 359.517 228.225 353.904L222.313 352.884C221.358 358.414 220.285 363.948 219.087 369.48L224.952 370.749ZM230.796 336.898C231.538 331.197 232.159 325.504 232.666 319.823L226.69 319.29C226.19 324.892 225.577 330.505 224.846 336.124L230.796 336.898ZM233.853 302.704C234.138 296.97 234.31 291.252 234.375 285.554L228.376 285.486C228.311 291.108 228.141 296.75 227.86 302.406L233.853 302.704ZM234.251 268.373C234.104 262.63 233.852 256.911 233.5 251.223L227.512 251.592C227.859 257.211 228.108 262.857 228.253 268.527L234.251 268.373ZM232.143 234.125C231.59 228.414 230.941 222.738 230.201 217.102L224.252 217.882C224.983 223.453 225.624 229.062 226.171 234.704L232.143 234.125ZM227.686 200.113C226.75 194.436 225.727 188.805 224.622 183.224L218.736 184.389C219.829 189.908 220.841 195.476 221.766 201.089L227.686 200.113ZM221.027 166.455C219.734 160.85 218.363 155.303 216.92 149.82L211.117 151.347C212.545 156.772 213.902 162.259 215.181 167.803L221.027 166.455ZM212.315 133.334C210.678 127.797 208.973 122.333 207.205 116.948L201.505 118.819C203.254 124.148 204.942 129.555 206.561 135.035L212.315 133.334ZM201.612 100.719C199.645 95.2748 197.619 89.9228 195.544 84.6696L189.963 86.8744C192.017 92.073 194.022 97.3698 195.969 102.758L201.612 100.719ZM189.004 68.8126C186.708 63.475 184.366 58.2556 181.989 53.1621L176.552 55.6999C178.904 60.7381 181.22 65.9018 183.492 71.1831L189.004 68.8126ZM174.49 37.7346C171.849 32.5139 169.178 27.4496 166.49 22.5517L161.23 25.4382C163.885 30.2768 166.525 35.2818 169.137 40.4433L174.49 37.7346ZM157.96 7.64599C156.489 5.18226 155.016 2.77048 153.545 0.412225L148.455 3.58777C149.905 5.91253 151.357 8.2911 152.808 10.7219L157.96 7.64599Z" fill="black"/>
</svg>
