<svg width="547" height="547" viewBox="0 0 547 547" fill="none" xmlns="http://www.w3.org/2000/svg">
<circle cx="273.5" cy="273.5" r="273.5" fill="#FF7BAC" fill-opacity="0.3"/>
<circle cx="274" cy="274" r="232" fill="#FF7BAC" fill-opacity="0.36"/>
<circle cx="274.5" cy="273.5" r="201.5" fill="#FF7BAC" fill-opacity="0.35"/>
<path d="M164.72 302.216C161.051 302.216 157.637 301.363 154.48 299.656C151.323 297.907 148.272 295.517 145.328 292.488C145.243 292.403 145.136 292.36 145.008 292.36C144.624 292.36 144.197 292.595 143.728 293.064L142.896 292.168L151.792 283.784L152.624 284.68C152.368 284.893 152.133 285.192 151.92 285.576C151.707 285.96 151.664 286.237 151.792 286.408C155.76 291.443 160.091 293.96 164.784 293.96C166.405 293.96 167.856 293.64 169.136 293C170.459 292.36 171.483 291.549 172.208 290.568C172.933 289.544 173.296 288.499 173.296 287.432C173.296 284.915 171.099 282.845 166.704 281.224L158.832 278.28C155.675 277.128 153.2 275.549 151.408 273.544C149.659 271.539 148.784 269.128 148.784 266.312C148.784 263.539 149.424 261.128 150.704 259.08C152.027 256.989 153.883 255.389 156.272 254.28C158.661 253.171 161.435 252.616 164.592 252.616C167.579 252.616 170.075 253.085 172.08 254.024C174.128 254.92 176.304 256.307 178.608 258.184C178.651 258.227 178.736 258.248 178.864 258.248C179.077 258.248 179.312 258.184 179.568 258.056C179.867 257.885 180.101 257.715 180.272 257.544L181.104 258.376L173.168 266.184L172.336 265.288C172.549 265.075 172.699 264.84 172.784 264.584C172.912 264.285 172.891 264.072 172.72 263.944C169.947 261.725 167.195 260.616 164.464 260.616C162.288 260.616 160.56 261.128 159.28 262.152C158 263.133 157.36 264.392 157.36 265.928C157.36 267.293 157.701 268.339 158.384 269.064C159.109 269.789 160.197 270.408 161.648 270.92L169.392 273.736C172.08 274.717 174.32 275.763 176.112 276.872C177.904 277.939 179.333 279.368 180.4 281.16C181.467 282.909 182 285.107 182 287.752C182 290.312 181.317 292.701 179.952 294.92C178.629 297.096 176.645 298.867 174 300.232C171.397 301.555 168.304 302.216 164.72 302.216ZM236.15 251.72V261.576H234.934C234.934 261.32 234.87 261.043 234.742 260.744C234.613 260.445 234.443 260.296 234.229 260.296H219.958V299.08C219.958 299.293 220.128 299.464 220.469 299.592C220.811 299.72 221.152 299.784 221.493 299.784V301H209.717V299.784C210.059 299.784 210.4 299.72 210.741 299.592C211.083 299.464 211.253 299.293 211.253 299.08V260.296H196.917C196.704 260.296 196.533 260.445 196.405 260.744C196.277 261.043 196.213 261.32 196.213 261.576H194.997V251.72H196.213C196.213 251.976 196.277 252.253 196.405 252.552C196.533 252.851 196.704 253 196.917 253H234.229C234.443 253 234.613 252.851 234.742 252.552C234.87 252.253 234.934 251.976 234.934 251.72H236.15ZM296.812 299.208C296.94 299.592 297.452 299.784 298.348 299.784V301H285.356V299.784C285.911 299.784 286.295 299.656 286.508 299.4C286.721 299.144 286.764 298.888 286.636 298.632L283.116 289.608H262.252L258.732 298.632L258.668 298.824C258.668 299.08 258.775 299.315 258.988 299.528C259.244 299.699 259.564 299.784 259.948 299.784V301H247.34V299.784C248.193 299.784 248.705 299.592 248.876 299.208L266.668 255.944C266.796 255.688 266.86 255.453 266.86 255.24C266.86 254.856 266.689 254.6 266.348 254.472C266.007 254.301 265.644 254.216 265.26 254.216V253H280.172V254.216C279.788 254.216 279.425 254.301 279.084 254.472C278.743 254.6 278.572 254.856 278.572 255.24C278.572 255.453 278.636 255.688 278.764 255.944L296.812 299.208ZM272.684 262.984L265.132 282.248H280.236L272.684 262.984ZM349.189 299.336C349.359 299.635 349.935 299.784 350.917 299.784V301H337.925V299.784C338.522 299.784 338.927 299.677 339.141 299.464C339.354 299.251 339.375 299.037 339.205 298.824L328.453 280.712H321.861V299.08C321.861 299.293 322.031 299.464 322.373 299.592C322.714 299.72 323.034 299.784 323.333 299.784V301H311.813V299.784C312.111 299.784 312.431 299.72 312.773 299.592C313.114 299.464 313.285 299.293 313.285 299.08V254.92C313.285 254.707 313.114 254.536 312.773 254.408C312.474 254.28 312.175 254.216 311.877 254.216V253H331.397C337.029 253 341.274 254.28 344.133 256.84C347.034 259.357 348.485 262.621 348.485 266.632C348.485 270.344 347.461 273.331 345.413 275.592C343.407 277.853 340.805 279.368 337.605 280.136L349.189 299.336ZM321.861 260.424V272.968H332.357C335.002 272.968 336.986 272.349 338.309 271.112C339.631 269.875 340.293 268.381 340.293 266.632C340.293 264.925 339.546 263.475 338.053 262.28C336.559 261.043 334.725 260.424 332.549 260.424H321.861ZM403.887 251.72V261.576H402.671C402.671 261.32 402.607 261.043 402.479 260.744C402.351 260.445 402.18 260.296 401.967 260.296H387.695V299.08C387.695 299.293 387.866 299.464 388.207 299.592C388.548 299.72 388.89 299.784 389.231 299.784V301H377.455V299.784C377.796 299.784 378.138 299.72 378.479 299.592C378.82 299.464 378.991 299.293 378.991 299.08V260.296H364.655C364.442 260.296 364.271 260.445 364.143 260.744C364.015 261.043 363.951 261.32 363.951 261.576H362.735V251.72H363.951C363.951 251.976 364.015 252.253 364.143 252.552C364.271 252.851 364.442 253 364.655 253H401.967C402.18 253 402.351 252.851 402.479 252.552C402.607 252.253 402.671 251.976 402.671 251.72H403.887Z" fill="black"/>
</svg>
