<svg width="82" height="69" viewBox="0 0 82 69" fill="none" xmlns="http://www.w3.org/2000/svg">
<path d="M82 23.3959C82 53.2917 41 68.6667 41 68.6667C41 68.6667 0 53.2917 0 23.3959C0 10.6517 9.9056 0.333374 22.14 0.333374C30.1104 0.333374 37.0968 4.72389 41 11.3009C44.9032 4.72389 51.8896 0.333374 59.86 0.333374C72.0944 0.333374 82 10.6517 82 23.3959Z" fill="#F7263F"/>
<path d="M81.9999 23.3948C81.9999 53.2916 40.9999 68.6666 40.9999 68.6666C40.9999 68.6666 24.5628 62.5029 12.5029 50.3904C53.0383 62.3604 67.7475 38.4828 67.7475 20.638C67.7475 6.82297 57.9133 2.61559 53.212 1.39339C55.3108 0.704204 57.5444 0.333252 59.8599 0.333252C72.0935 0.333252 81.9999 10.6516 81.9999 23.3948Z" fill="#CC1F3C"/>
<path d="M25.1935 5.852C18.114 5.1507 3.40159 6.01639 5.46858 25.8504C5.54882 26.6203 6.62263 26.737 6.8698 26.0035C8.63261 20.7707 13.461 10.8231 25.3372 7.25947C26.0924 7.0328 25.9781 5.9297 25.1935 5.852Z" fill="#FF7683"/>
</svg>
