<svg width="301" height="111" viewBox="0 0 401 111" fill="none" xmlns="http://www.w3.org/2000/svg">
<path d="M184.514 37.2411C184.887 36.511 185.65 36.0693 186.458 36.0796C187.273 36.0992 188.006 36.5868 188.343 37.3334L195.524 53.2399H214.511C215.222 53.2399 215.887 53.5974 216.281 54.1931L218.12 56.967L219.859 54.2279C220.249 53.6126 220.926 53.2405 221.652 53.2405H225.313L233.658 29.5836C233.978 28.6769 234.861 28.097 235.815 28.1655C236.769 28.2345 237.56 28.9359 237.748 29.8793L244.579 64.2341L252.103 35.8346C252.346 34.9169 253.163 34.2699 254.107 34.2473C255.042 34.2271 255.898 34.8314 256.185 35.7363L263.244 58.0215L267.548 51.1338C267.937 50.5106 268.617 50.133 269.349 50.133H285.147C287.008 38.6323 284.286 27.6082 280.026 19.6232C273.629 7.63189 262.926 0.113042 252.095 0.00123063C252.01 0.000619643 251.925 0 251.838 0C244.093 0 233.053 3.60363 222.872 19.9745C212.578 3.42095 201.4 -0.0659784 193.649 0.00123063C182.819 0.113042 172.116 7.63129 165.718 19.6226C161.075 28.3243 158.257 40.6358 161.21 53.2405H176.348L184.514 37.2411Z" fill="url(#paint0_linear_7_7842)"/>
<path d="M264.408 64.1962C263.967 64.9013 263.164 65.2862 262.339 65.1799C261.517 65.0748 260.832 64.5005 260.58 63.7075L254.34 44.0048L246.338 74.2049C246.09 75.1434 245.244 75.7928 244.284 75.7928C244.261 75.7928 244.239 75.7928 244.216 75.7916C243.228 75.7605 242.392 75.0486 242.198 74.0735L235.088 38.3195L228.818 56.0927C228.517 56.9462 227.714 57.5163 226.814 57.5163H222.816L219.949 62.0309C219.562 62.64 218.896 63.0109 218.178 63.0182C217.471 63.0396 216.785 62.6669 216.387 62.0651L213.372 57.5157H194.154C193.319 57.5157 192.562 57.025 192.217 56.2613L186.289 43.1292L179.538 56.3536C179.174 57.0666 178.444 57.5157 177.646 57.5157H162.439C163.606 60.9354 165.222 64.349 167.38 67.6911C177.566 83.4724 195.412 97.4873 221.936 110.538L222.871 110.998L223.807 110.538C250.33 97.4873 268.177 83.4718 278.363 67.6911C281.174 63.3366 283.073 58.8598 284.242 54.4076H270.524L264.408 64.1962Z" fill="url(#paint1_linear_7_7842)"/>
<path opacity="0.3" d="M221.936 110.54L222.871 111L223.24 110.819C222.42 110.365 221.612 109.89 220.824 109.387C213.062 104.436 206.737 97.5374 200.808 90.475C194.305 82.7295 188.117 74.6185 183.591 65.5606C182.897 64.1718 182.237 62.7494 181.62 61.3008C180.9 59.6101 180.243 57.881 179.655 56.1263L179.538 56.3554C179.174 57.0684 178.444 57.5175 177.646 57.5175H162.439C163.606 60.9372 165.222 64.3508 167.38 67.6929C177.566 83.4736 195.412 97.4892 221.936 110.54Z" fill="white"/>
<path opacity="0.3" d="M161.209 53.24H176.347L177.961 50.0775C176.873 45.1884 176.449 40.1764 176.988 35.2292C178.475 21.5858 187.125 8.69449 197.996 0.673396C198.12 0.582359 198.246 0.495591 198.371 0.406386C196.808 0.122886 195.329 0.0068099 193.951 0.00253296C182.989 0.138173 172.183 7.71568 165.741 19.7907C162.721 25.4509 160.469 32.6325 160.064 40.4306C160.063 40.4575 160.062 40.485 160.061 40.5118C160.037 40.9792 160.021 41.4491 160.011 41.9214C159.953 45.6051 160.312 49.4085 161.209 53.24Z" fill="white"/>
<path d="M129.702 52.2C129.515 52.2 129.315 52.24 129.102 52.32C128.915 52.4 128.822 52.5067 128.822 52.64V68.64C128.822 68.7733 128.915 68.88 129.102 68.96C129.315 69.04 129.515 69.08 129.702 69.08V69.84H123.782V67.64C122.102 69.4533 119.982 70.36 117.422 70.36C115.475 70.36 113.755 69.9733 112.262 69.2C110.795 68.4 109.649 67.2667 108.822 65.8C108.022 64.3333 107.622 62.6267 107.622 60.68C107.622 58.7867 108.062 57.1067 108.942 55.64C109.849 54.1467 111.049 53 112.542 52.2C114.035 51.3733 115.662 50.96 117.422 50.96C119.982 50.96 122.102 51.9467 123.782 53.92V51.44H129.702V52.2ZM118.022 66.12C119.115 66.12 120.089 65.88 120.942 65.4C121.822 64.8933 122.502 64.24 122.982 63.44C123.462 62.6133 123.702 61.7333 123.702 60.8C123.702 59.2 123.169 57.88 122.102 56.84C121.062 55.8 119.702 55.28 118.022 55.28C116.395 55.28 115.049 55.7867 113.982 56.8C112.942 57.8133 112.422 59.1067 112.422 60.68C112.422 62.3333 112.955 63.6533 114.022 64.64C115.115 65.6267 116.449 66.12 118.022 66.12Z" fill="black"/>
<path d="M100.422 48.08C99.569 48.08 98.8357 47.7867 98.2224 47.2C97.6357 46.6133 97.3424 45.88 97.3424 45C97.3424 44.1733 97.6357 43.4667 98.2224 42.88C98.8357 42.2667 99.569 41.96 100.422 41.96C101.276 41.96 101.996 42.2667 102.582 42.88C103.169 43.4667 103.462 44.1733 103.462 45C103.462 45.88 103.169 46.6133 102.582 47.2C101.996 47.7867 101.276 48.08 100.422 48.08ZM97.8224 52.64C97.8224 52.5067 97.7157 52.4 97.5024 52.32C97.3157 52.24 97.129 52.2 96.9424 52.2V51.44H103.822V52.2C103.636 52.2 103.436 52.24 103.222 52.32C103.036 52.4 102.942 52.5067 102.942 52.64V68.64C102.942 68.7733 103.036 68.88 103.222 68.96C103.436 69.04 103.636 69.08 103.822 69.08V69.84H96.9424V69.08C97.129 69.08 97.3157 69.04 97.5024 68.96C97.7157 68.88 97.8224 68.7733 97.8224 68.64V52.64Z" fill="black"/>
<path d="M91.6643 68.64C91.6643 68.7733 91.7576 68.88 91.9443 68.96C92.1576 69.04 92.3576 69.08 92.5443 69.08V69.84H86.8243V68.44C85.2243 69.7467 83.3176 70.4 81.1043 70.4C79.1309 70.4 77.3709 70 75.8243 69.2C74.2776 68.4 73.0643 67.2667 72.1843 65.8C71.3043 64.3333 70.8643 62.64 70.8643 60.72C70.8643 58.7733 71.3043 57.0533 72.1843 55.56C73.0909 54.04 74.3176 52.8667 75.8643 52.04C77.4376 51.1867 79.1843 50.76 81.1043 50.76C83.3176 50.76 85.2243 51.3867 86.8243 52.64V41.04C86.8243 40.9067 86.7309 40.8 86.5443 40.72C86.3576 40.64 86.1709 40.6 85.9843 40.6V39.84H92.5043V40.6C92.3176 40.6 92.1309 40.64 91.9443 40.72C91.7576 40.8 91.6643 40.9067 91.6643 41.04V68.64ZM81.3443 66.12C82.3843 66.12 83.3309 65.88 84.1843 65.4C85.0643 64.92 85.7443 64.28 86.2243 63.48C86.7309 62.6533 86.9843 61.7867 86.9843 60.88C86.9843 59.2533 86.4509 57.92 85.3843 56.88C84.3443 55.8133 82.9976 55.28 81.3443 55.28C79.6909 55.28 78.3309 55.8 77.2643 56.84C76.2243 57.8533 75.7043 59.1733 75.7043 60.8C75.7043 62.4267 76.2376 63.72 77.3043 64.68C78.3976 65.64 79.7443 66.12 81.3443 66.12Z" fill="black"/>
<path d="M68.8587 50.24V56.68H68.0987C68.0987 56.4933 68.0587 56.28 67.9787 56.04C67.8987 55.8 67.792 55.6667 67.6587 55.64H67.3787C66.552 55.64 65.712 55.88 64.8587 56.36C64.032 56.8133 63.3387 57.4267 62.7787 58.2C62.2453 58.9467 61.9787 59.7467 61.9787 60.6V68.64C61.9787 68.7733 62.072 68.88 62.2587 68.96C62.472 69.04 62.672 69.08 62.8587 69.08V69.84H56.1387V69.08C56.3253 69.08 56.512 69.04 56.6987 68.96C56.912 68.88 57.0187 68.7733 57.0187 68.64V52.64C57.0187 52.5067 56.912 52.4 56.6987 52.32C56.512 52.24 56.3253 52.2 56.1387 52.2V51.44H61.9787V53.16C62.6987 52.4933 63.5653 51.96 64.5787 51.56C65.592 51.16 66.6053 50.96 67.6187 50.96H67.6587H67.6987C67.832 50.96 67.9253 50.88 67.9787 50.72C68.0587 50.56 68.0987 50.4 68.0987 50.24H68.8587Z" fill="black"/>
<path d="M52.8661 52.2C52.6795 52.2 52.4795 52.24 52.2661 52.32C52.0795 52.4 51.9861 52.5067 51.9861 52.64V68.64C51.9861 68.7733 52.0795 68.88 52.2661 68.96C52.4795 69.04 52.6795 69.08 52.8661 69.08V69.84H46.9461V67.64C45.2661 69.4533 43.1461 70.36 40.5861 70.36C38.6395 70.36 36.9195 69.9733 35.4261 69.2C33.9595 68.4 32.8128 67.2667 31.9861 65.8C31.1861 64.3333 30.7861 62.6267 30.7861 60.68C30.7861 58.7867 31.2261 57.1067 32.1061 55.64C33.0128 54.1467 34.2128 53 35.7061 52.2C37.1995 51.3733 38.8261 50.96 40.5861 50.96C43.1461 50.96 45.2661 51.9467 46.9461 53.92V51.44H52.8661V52.2ZM41.1861 66.12C42.2795 66.12 43.2528 65.88 44.1061 65.4C44.9861 64.8933 45.6661 64.24 46.1461 63.44C46.6261 62.6133 46.8661 61.7333 46.8661 60.8C46.8661 59.2 46.3328 57.88 45.2661 56.84C44.2261 55.8 42.8661 55.28 41.1861 55.28C39.5595 55.28 38.2128 55.7867 37.1461 56.8C36.1061 57.8133 35.5861 59.1067 35.5861 60.68C35.5861 62.3333 36.1195 63.6533 37.1861 64.64C38.2795 65.6267 39.6128 66.12 41.1861 66.12Z" fill="black"/>
<path d="M15.64 70.24C12.7867 70.24 10.16 69.5733 7.76 68.24C5.36 66.88 3.46667 65.0133 2.08 62.64C0.693334 60.24 0 57.5733 0 54.64C0 51.5467 0.693334 48.8133 2.08 46.44C3.46667 44.0667 5.33333 42.24 7.68 40.96C10.0267 39.6533 12.6 39 15.4 39C18.0933 39 20.36 39.48 22.2 40.44C24.0667 41.3733 25.8267 42.6933 27.48 44.4C27.5333 44.4533 27.6133 44.48 27.72 44.48C27.88 44.48 28.16 44.36 28.56 44.12L29.04 44.72L23.52 49.08L23.04 48.48C23.2 48.3733 23.32 48.24 23.4 48.08C23.5067 47.8933 23.5067 47.76 23.4 47.68C22.28 46.5867 21.1067 45.76 19.88 45.2C18.68 44.6133 17.2133 44.32 15.48 44.32C13.6667 44.32 12 44.7733 10.48 45.68C8.96 46.56 7.76 47.7867 6.88 49.36C6 50.9333 5.56 52.6933 5.56 54.64C5.56 56.5067 6.02667 58.2133 6.96 59.76C7.89333 61.28 9.13333 62.48 10.68 63.36C12.2267 64.24 13.88 64.68 15.64 64.68C17.2933 64.68 18.7067 64.4 19.88 63.84C21.0533 63.2533 22.16 62.3867 23.2 61.24L23.28 61.08C23.28 60.9467 23.2133 60.8 23.08 60.64C22.9733 60.4533 22.8533 60.32 22.72 60.24L23.24 59.68L29.2 64.68L28.72 65.28C28.56 65.1467 28.36 65.0267 28.12 64.92C27.88 64.8133 27.72 64.8133 27.64 64.92C25.96 66.7333 24.2 68.08 22.36 68.96C20.52 69.8133 18.28 70.24 15.64 70.24Z" fill="black"/>
<path d="M391.059 50.76C393.112 50.76 394.885 51.2133 396.379 52.12C397.872 53 399.005 54.2 399.779 55.72C400.552 57.24 400.939 58.92 400.939 60.76C400.939 61.32 400.899 61.88 400.819 62.44H386.179C386.285 63.72 386.845 64.72 387.859 65.44C388.872 66.16 390.085 66.52 391.499 66.52C392.459 66.52 393.259 66.3867 393.899 66.12C394.565 65.8533 395.152 65.4533 395.659 64.92C395.712 64.8133 395.739 64.7467 395.739 64.72C395.739 64.6133 395.699 64.5067 395.619 64.4C395.539 64.2667 395.459 64.1733 395.379 64.12L395.859 63.52L400.299 67L399.859 67.6C399.459 67.36 399.179 67.3333 399.019 67.52C397.152 69.76 394.645 70.88 391.499 70.88C389.472 70.88 387.685 70.44 386.139 69.56C384.592 68.6533 383.392 67.4533 382.539 65.96C381.712 64.44 381.299 62.76 381.299 60.92C381.299 58.9733 381.712 57.2267 382.539 55.68C383.365 54.1333 384.512 52.9333 385.979 52.08C387.472 51.2 389.165 50.76 391.059 50.76ZM396.139 58.72C396.032 57.6267 395.472 56.7067 394.459 55.96C393.472 55.1867 392.352 54.8 391.099 54.8C389.845 54.8 388.765 55.1867 387.859 55.96C386.952 56.7067 386.405 57.6267 386.219 58.72H396.139Z" fill="black"/>
<path d="M379.099 50.8V56.88H378.339C378.339 56.6933 378.299 56.52 378.219 56.36C378.139 56.1733 378.032 56.08 377.899 56.08H375.299V68.8C375.299 68.9333 375.392 69.04 375.579 69.12C375.766 69.2 375.952 69.24 376.139 69.24V70H369.619V69.24C369.806 69.24 369.992 69.2 370.179 69.12C370.366 69.04 370.459 68.9333 370.459 68.8V56.08H368.539C368.406 56.08 368.299 56.1733 368.219 56.36C368.139 56.52 368.099 56.6933 368.099 56.88H367.339V50.8H368.099C368.099 50.9867 368.139 51.1733 368.219 51.36C368.299 51.52 368.406 51.6 368.539 51.6H370.459V46.92C370.459 46.7867 370.366 46.68 370.179 46.6C369.992 46.52 369.806 46.48 369.619 46.48V45.72H376.139V46.48C375.952 46.48 375.766 46.52 375.579 46.6C375.392 46.68 375.299 46.7867 375.299 46.92V51.6H377.899C378.032 51.6 378.139 51.52 378.219 51.36C378.299 51.1733 378.339 50.9867 378.339 50.8H379.099Z" fill="black"/>
<path d="M364.707 52.36C364.52 52.36 364.32 52.4 364.107 52.48C363.92 52.56 363.827 52.6667 363.827 52.8V68.8C363.827 68.9333 363.92 69.04 364.107 69.12C364.32 69.2 364.52 69.24 364.707 69.24V70H358.787V67.8C357.107 69.6133 354.987 70.52 352.427 70.52C350.48 70.52 348.76 70.1333 347.267 69.36C345.8 68.56 344.654 67.4267 343.827 65.96C343.027 64.4933 342.627 62.7867 342.627 60.84C342.627 58.9467 343.067 57.2667 343.947 55.8C344.854 54.3067 346.054 53.16 347.547 52.36C349.04 51.5333 350.667 51.12 352.427 51.12C354.987 51.12 357.107 52.1067 358.787 54.08V51.6H364.707V52.36ZM353.027 66.28C354.12 66.28 355.094 66.04 355.947 65.56C356.827 65.0533 357.507 64.4 357.987 63.6C358.467 62.7733 358.707 61.8933 358.707 60.96C358.707 59.36 358.174 58.04 357.107 57C356.067 55.96 354.707 55.44 353.027 55.44C351.4 55.44 350.054 55.9467 348.987 56.96C347.947 57.9733 347.427 59.2667 347.427 60.84C347.427 62.4933 347.96 63.8133 349.027 64.8C350.12 65.7867 351.454 66.28 353.027 66.28Z" fill="black"/>
<path d="M339.36 68.96C339.467 69.1467 339.827 69.24 340.44 69.24V70H332.32V69.24C332.693 69.24 332.947 69.1733 333.08 69.04C333.213 68.9067 333.227 68.7733 333.12 68.64L326.4 57.32H322.28V68.8C322.28 68.9333 322.387 69.04 322.6 69.12C322.813 69.2 323.013 69.24 323.2 69.24V70H316V69.24C316.187 69.24 316.387 69.2 316.6 69.12C316.813 69.04 316.92 68.9333 316.92 68.8V41.2C316.92 41.0667 316.813 40.96 316.6 40.88C316.413 40.8 316.227 40.76 316.04 40.76V40H328.24C331.76 40 334.413 40.8 336.2 42.4C338.013 43.9733 338.92 46.0133 338.92 48.52C338.92 50.84 338.28 52.7067 337 54.12C335.747 55.5333 334.12 56.48 332.12 56.96L339.36 68.96ZM322.28 44.64V52.48H328.84C330.493 52.48 331.733 52.0933 332.56 51.32C333.387 50.5467 333.8 49.6133 333.8 48.52C333.8 47.4533 333.333 46.5467 332.4 45.8C331.467 45.0267 330.32 44.64 328.96 44.64H322.28Z" fill="black"/>
<defs>
<linearGradient id="paint0_linear_7_7842" x1="222.87" y1="-64.6143" x2="222.87" y2="34.7769" gradientUnits="userSpaceOnUse">
<stop stop-color="#48B0E0"/>
<stop offset="0.8166" stop-color="#2C62D6"/>
</linearGradient>
<linearGradient id="paint1_linear_7_7842" x1="223.34" y1="40.1235" x2="223.34" y2="112.656" gradientUnits="userSpaceOnUse">
<stop stop-color="#48B0E0"/>
<stop offset="0.8166" stop-color="#2C62D6"/>
</linearGradient>
</defs>
</svg>
