<svg width="39" height="54" viewBox="0 0 39 54" fill="none" xmlns="http://www.w3.org/2000/svg">
<path d="M35.8937 30.6999C30.1643 37.8719 18.4542 38.0414 9.73814 31.0785C8.76627 30.3021 7.87257 29.4697 7.05976 28.5937C6.47879 27.9676 3.67334 23.7662 5.42916 21.4762C6.53885 20.0289 8.78623 23.1731 11.3549 25.2015C12.8506 26.3826 18.0633 29.0109 20.1507 26.3787C21.2493 23.9899 18.2528 21.198 17.5649 20.4067C15.1153 17.5892 11.4451 14.9691 8.36696 12.833C7.63487 12.215 6.45913 11.371 6.00187 10.7412C5.77328 10.4262 4.8952 9.05964 5.22061 8.33849C5.40584 7.92795 6.03872 7.49229 7.10568 7.6474C7.91319 7.76479 9.18357 8.41815 9.4736 8.54848C10.6454 9.07477 11.7973 9.64634 12.9227 10.2676C14.6933 11.2464 16.3993 12.3494 17.9854 13.6111C19.5697 14.8723 21.0353 16.2959 22.2739 17.9089C21.0852 16.2589 19.658 14.7841 18.1035 13.4673C16.5472 12.1497 14.8625 10.986 13.1076 9.94471C11.3515 8.90406 9.52368 7.9849 7.65047 7.16998C6.8827 6.83617 5.20098 5.58706 5.99503 4.35238C6.78902 3.11767 10.0196 3.65631 10.9586 4.03075C12.8361 4.78022 14.6739 5.63497 16.4455 6.61331C18.2161 7.592 19.9221 8.69492 21.5082 9.9567C23.0926 11.218 24.5582 12.6416 25.7967 14.2545C24.608 12.6044 23.1809 11.1297 21.6263 9.81289C20.07 8.49536 18.3853 7.3315 16.6305 6.29027C15.1944 5.4393 13.7105 4.66954 12.193 3.97172C12.055 3.90827 10.9957 3.4605 10.4593 3.00163C9.68063 2.33553 9.42537 1.54801 9.87075 1.06082C11.5387 -0.477824 14.5569 0.223685 16.0297 0.891363C17.1934 1.41444 18.3376 1.98185 19.4552 2.5989C21.2258 3.57765 22.9319 4.68066 24.518 5.94232C26.1022 7.20355 27.5679 8.62717 28.8064 10.2401C27.6177 8.59003 26.1905 7.11543 24.636 5.79857C23.0796 4.48101 21.395 3.31718 19.6401 2.276C18.9855 1.88811 18.3209 1.51734 17.6477 1.16254C16.8956 0.766221 16.4919 -0.0146864 17.0649 0.000210111C21.5756 0.117392 26.3653 1.81507 30.4859 5.10678C39.2018 12.0696 41.6229 23.528 35.8937 30.6999Z" fill="#27AAE1"/>
<path d="M6.67019 17.2028C14.3364 12.154 25.5251 15.6138 31.661 24.9306C32.3451 25.9694 32.9376 27.0374 33.4397 28.1218C33.7986 28.8969 35.1674 33.7599 32.7895 35.3947C31.2867 36.4279 30.1216 32.7429 28.3061 30.0196C27.249 28.4339 23.1044 24.3225 20.3055 26.1803C18.522 28.1123 20.5084 31.694 20.9178 32.6592C22.3761 36.096 25.0563 39.7227 27.3231 42.7059C27.8282 43.52 28.6853 44.6861 28.9254 45.4265C29.0454 45.7967 29.4579 47.3678 28.9254 47.9531C28.6223 48.2862 27.8858 48.5048 26.919 48.0274C26.1873 47.666 25.1812 46.6518 24.9457 46.4383C23.9941 45.5754 23.0754 44.6756 22.1974 43.7368C20.8162 42.2585 19.5348 40.682 18.4166 38.9916C17.3 37.3023 16.3463 35.4953 15.6672 33.5784C16.2875 35.5152 17.1887 37.3589 18.2598 39.0919C19.3324 40.8261 20.5747 42.4538 21.9216 43.9867C23.2699 45.5194 24.7238 46.9587 26.2533 48.3129C26.8802 48.8678 28.0932 50.5757 26.9564 51.5043C25.8194 52.433 22.9137 50.9218 22.1365 50.2754C20.5829 48.982 19.0994 47.6009 17.7171 46.1227C16.3359 44.6444 15.0546 43.068 13.9364 41.3776C12.8197 39.6883 11.8661 37.8813 11.187 35.9644C11.8073 37.9012 12.7085 39.7449 13.7797 41.4779C14.8523 43.2121 16.0944 44.8399 17.4414 46.3727C18.5439 47.626 19.7171 48.8169 20.9445 49.9498C21.0561 50.0529 21.9249 50.8062 22.2932 51.4085C22.8278 52.2826 22.8269 53.1105 22.2528 53.4361C20.1908 54.3836 17.5374 52.7832 16.3433 51.6928C15.3983 50.8355 14.4857 49.9421 13.6136 49.0097C12.2325 47.5314 10.9511 45.955 9.83293 44.2646C8.71631 42.5753 7.76264 40.7683 7.08358 38.8514C7.70376 40.7882 8.60504 42.6318 9.67615 44.3648C10.7488 46.0991 11.991 47.7268 13.338 49.2596C13.8406 49.8309 14.3579 50.389 14.8885 50.9346C15.4811 51.544 15.6235 52.4115 15.0832 52.2202C10.8299 50.7139 6.79984 47.6184 3.89913 43.2138C-2.23664 33.8971 -0.995904 22.2515 6.67019 17.2028Z" fill="#FFF200"/>
<path d="M20.2617 26.2376C20.254 26.2554 20.2468 26.2734 20.2385 26.2912C18.1512 28.9234 12.9384 26.2951 11.4428 25.1139C8.87411 23.0855 6.62673 19.9414 5.51705 21.3886C3.76123 23.6786 6.56671 27.88 7.14764 28.5061C7.96042 29.3821 8.85412 30.2145 9.82602 30.9909C12.273 32.9457 14.9561 34.3383 17.6764 35.1717C17.8225 35.2156 17.247 34.1538 17.8225 35.2156C20.038 35.8776 22.2758 36.1693 24.429 36.0918C23.3175 34.4116 22.307 32.6785 21.591 30.9912C21.2857 30.2716 20.1044 28.0979 20.2617 26.2376Z" fill="#27AAE1"/>
</svg>
