<svg width="48" height="48" viewBox="0 0 48 48" fill="none" xmlns="http://www.w3.org/2000/svg">
<path d="M21.566 37.6558C24.7478 37.6599 27.8595 36.7207 30.5077 34.9568C33.1558 33.1929 35.2216 30.6835 36.444 27.7458C37.6655 24.8082 37.9874 21.5741 37.3689 18.4533C36.7504 15.3325 35.2195 12.4656 32.97 10.2158C30.721 7.96571 27.8554 6.43284 24.7354 5.81093C21.6154 5.18901 18.381 5.50597 15.4411 6.72175C12.5012 7.93752 9.98773 9.99753 8.21829 12.6414C6.44885 15.2853 5.5029 18.3944 5.5 21.5758C5.5 25.8378 7.192 29.9238 10.204 32.9378C13.2165 35.9528 17.302 37.6496 21.564 37.6558M32.976 32.9818L42.5 42.4998" stroke="black" stroke-width="1.5" stroke-linecap="round" stroke-linejoin="round"/>
</svg>
