<svg width="37" height="36" viewBox="0 0 37 36" fill="none" xmlns="http://www.w3.org/2000/svg">
<path d="M18.9199 0C14.1471 0 9.56555 1.89759 6.19336 5.27203C2.81769 8.64781 0.920857 13.226 0.919922 18C0.919922 22.772 2.81836 27.3535 6.19336 30.728C9.56555 34.1024 14.1471 36 18.9199 36C23.6927 36 28.2743 34.1024 31.6465 30.728C35.0215 27.3535 36.9199 22.772 36.9199 18C36.9199 13.228 35.0215 8.64647 31.6465 5.27203C28.2743 1.89759 23.6927 0 18.9199 0Z" fill="url(#paint0_linear_26_4358)"/>
<path d="M9.06769 17.8101C14.3158 15.5241 17.8146 14.0168 19.5639 13.2887C24.5646 11.2094 25.6024 10.8483 26.2802 10.836C26.4293 10.8337 26.7611 10.8705 26.9777 11.0456C27.1577 11.1932 27.2083 11.3929 27.2336 11.5331C27.2561 11.6732 27.2871 11.9924 27.2618 12.2416C26.9918 15.0878 25.8189 21.9948 25.2227 25.1828C24.9724 26.5316 24.4746 26.9839 23.9936 27.028C22.9474 27.1242 22.1543 26.3373 21.1418 25.6738C19.5583 24.6352 18.6639 23.9888 17.1255 22.9755C15.348 21.8044 16.5011 21.1606 17.5136 20.1087C17.778 19.8334 22.3849 15.6442 22.4721 15.2642C22.4833 15.2167 22.4946 15.0395 22.3877 14.9461C22.2836 14.8524 22.1289 14.8845 22.0164 14.9098C21.8561 14.9458 19.3277 16.6187 14.4227 19.9282C13.7055 20.4215 13.0558 20.6619 12.4708 20.6493C11.8296 20.6355 10.5921 20.2859 9.67238 19.9872C8.54738 19.6208 7.65019 19.427 7.72894 18.8046C7.76831 18.4806 8.2155 18.149 9.06769 17.8101Z" fill="white"/>
<defs>
<linearGradient id="paint0_linear_26_4358" x1="1800.92" y1="0" x2="1800.92" y2="3600" gradientUnits="userSpaceOnUse">
<stop stop-color="#2AABEE"/>
<stop offset="1" stop-color="#229ED9"/>
</linearGradient>
</defs>
</svg>
