<svg width="182" height="53" viewBox="0 0 182 53" fill="none" xmlns="http://www.w3.org/2000/svg">
<path d="M3.11723 31.9588C2.48472 31.6982 1.81228 31.5842 0.922607 31.6147C1.42574 31.8866 2.29465 31.9125 3.11723 31.9588Z" fill="#262626"/>
<path d="M3.13077 31.9641C3.13353 31.963 3.13907 31.9619 3.14183 31.9608C3.13216 31.9608 3.12524 31.9596 3.11694 31.9585C3.12247 31.9608 3.12662 31.9619 3.13077 31.9641Z" fill="#262626"/>
<path d="M13.4384 21.7519C10.985 21.6481 7.20433 21.2126 3.92358 21.5432L1.80562 20.8302L1.49576 20.9012C1.49576 20.9012 -1.91596 29.5116 2.41578 31.345L2.3471 31.5943L3.20322 31.5616C4.23025 31.6846 4.70623 31.3946 4.63595 31.644L3.22877 31.6135C4.26059 31.6857 3.54024 31.8177 3.14572 31.9599C3.57698 31.9836 3.99545 32.014 4.33886 32.0907C4.54171 31.9948 4.18872 31.987 4.02899 31.9328C4.58484 31.8448 5.35791 31.6101 6.03355 31.7252C7.09093 31.7489 6.10063 32.1291 7.3337 32.1562C13.8393 32.3491 20.1421 32.639 26.7179 32.5826C26.8681 32.6864 26.6892 32.683 26.4991 32.7293C28.4797 32.621 30.2399 32.6605 32.0448 32.5488C32.5463 32.6605 32.6821 32.8139 32.8306 32.9177C32.5335 32.7101 42.7911 32.691 42.954 32.7451L43.0786 32.2938C45.0288 32.287 43.6472 32.8094 45.4489 32.6977C46.1549 32.0603 48.4437 32.7643 49.0683 32.4247C49.0539 32.4754 49.9372 32.4946 49.8813 32.6943C50.1512 32.348 50.7901 32.6142 51.3459 32.5251C51.5472 32.4292 51.1974 32.4213 51.0472 32.3175L52.3234 32.1957C52.8218 32.3074 52.9448 32.5104 52.4033 32.5488C55.7368 32.6729 71.7428 33.0046 75.335 32.832C74.8734 32.5702 73.7649 32.7474 73.3433 32.3356C74.292 32.1054 74.7409 32.4157 75.1593 32.1742C75.5235 32.7857 77.2453 32.3209 77.9641 32.9403L78.2372 32.5939L78.7084 32.806C82.8836 32.445 79.662 32.63 83.3644 32.7113C85.5063 32.6582 86.5254 32.1776 87.7169 32.3547C87.5396 32.3514 87.0668 32.1392 87.6227 32.0501C87.7169 32.3547 89.1001 31.8312 89.3701 32.1392C89.9131 32.1009 91.6749 32.1404 91.0791 31.7241C91.3778 31.9317 92.9495 32.0163 92.0135 32.1968C92.5438 32.2092 93.0565 32.2701 93.4383 32.1787L92.7578 32.0625C94.5484 32.0016 95.5243 32.3243 96.6903 31.9475L96.029 31.7816C97.0992 31.7557 97.9936 31.7241 98.4153 32.1359L97.3164 32.2622C99.0909 32.2521 100.161 32.225 101.642 32.005L101.113 31.9937C102.998 31.583 112.858 31.2434 114.594 30.7279L113.794 30.4086L115.287 30.1401C115.11 30.1367 114.567 31.178 114.418 31.0731C117.619 31.0437 134.266 30.7956 137.22 31.011C138.414 31.1882 137.435 31.5188 137.422 31.5684C138.874 31.4488 138.048 31.2299 139.281 31.257C139.618 31.3145 139.211 31.5075 139.022 31.5526C139.564 31.5142 140.064 31.6259 140.105 31.4759C139.429 31.3597 139.715 30.9637 139.429 30.7064L141.017 30.7403L140.947 30.9907C141.301 30.9986 141.845 30.307 143.403 30.4413C146.034 30.5496 148.89 30.4616 151.535 30.5203C151.494 30.6703 150.939 30.7595 150.382 30.8475C150.736 30.8554 151.276 30.817 151.604 30.9242C150.965 30.659 152.714 30.747 152.214 30.6353C152.613 30.509 153.038 30.4413 153.474 30.3962C152.81 31.0878 152.271 31.7072 152.209 32.0242L152.843 32.0287L152.527 32.6323C152.6 32.586 151.771 31.6993 151.933 31.732C150.708 32.639 144.427 37.426 143.054 38.0916C142.408 38.297 142.461 37.7927 142.416 37.7532C141.966 38.2394 142.511 38.1661 141.999 38.4887C141.809 38.5418 141.776 38.2924 141.805 38.2078C141.63 38.3838 141.322 38.4448 141.456 38.5621C141.838 38.4572 142.122 38.8159 142.491 38.9186L141.835 39.3338L141.611 39.1375C141.464 39.23 141.944 39.8697 141.198 40.207C140.057 40.8591 139.025 41.712 137.93 42.4036C137.796 42.2863 137.925 42.0697 138.054 41.8531C137.907 41.9456 137.733 42.1227 137.498 42.1374C138.014 42.1475 137.24 42.5695 137.548 42.5108C137.401 43.4799 135.858 43.7789 135.602 44.5461C136.094 44.9759 143.625 52.2415 144.28 52.7041C144.06 52.8429 143.841 52.9805 143.723 52.9873C143.931 53.0584 144.413 52.8214 144.542 52.6048L144.229 52.3307C144.606 51.8907 144.555 52.395 145.02 52.0328C145.333 52.2167 144.945 52.5777 144.576 52.8767C144.966 52.6488 145.529 52.545 145.362 52.2212C145.817 52.0689 145.675 52.4954 146.202 52.2968C146.405 52.0339 146.502 51.5691 147.002 51.4563L147.047 51.4958C148.146 51.1382 147.839 50.3202 148.866 50.0099L148.884 50.1341C149.308 50.0686 149.596 49.5497 150.241 49.3454C150.05 49.3985 149.727 49.3342 149.973 49.1108C150.692 48.8592 150.877 48.4722 151.494 48.3526L151.589 47.8878C153.516 46.6039 160.512 41.0983 162.347 39.7388L162.318 39.8223C163.681 38.7607 165.838 37.1947 167.976 35.5995C169.748 34.2885 171.526 32.973 173.165 31.7602C174.959 30.4165 176.537 29.2003 177.708 28.2368C179.032 27.693 180.091 26.8525 181.122 26.2331C180.402 26.5795 180.188 26.4531 180.583 26.1891C180.597 26.179 180.618 26.1654 180.618 26.1654C178.108 24.3524 180.07 26.0503 177.26 24.2317C175.532 23.1926 172.015 20.6959 168.538 18.1394L167.575 17.4185C167.337 17.2346 167.102 17.0518 166.87 16.8724C166.415 16.5114 165.979 16.1662 165.58 15.8491C164.789 15.2117 164.165 14.6814 163.847 14.3734C162.63 14.0903 161.93 13.1595 160.879 12.7827L161.055 12.7714C160.05 12.2795 155.613 8.61061 154.479 8.01492L154.554 8.1503C153.439 7.72045 154.003 7.48804 153.461 6.91041C153.092 7.29738 152.094 6.95892 151.778 6.78405L151.888 6.72087C151.387 6.47492 150.026 6.07668 149.264 5.62427L149.542 5.46631C148.687 5.24293 147.698 4.38662 147.253 4.10908C146.395 3.35657 145.347 2.00049 143.731 1.32583L143.614 0.234848L143.423 0.19873C143.423 0.19873 133.465 5.3422 133.328 7.83891L133.052 7.99574L133.419 8.2101C133.699 8.58128 134.175 8.50907 133.898 8.66589L133.377 8.2541C133.71 8.59144 133.294 8.48537 132.999 8.47635C133.144 8.61286 133.278 8.74937 133.336 8.89942C133.512 8.88814 133.381 8.78436 133.373 8.702C133.679 8.79339 134.216 8.8419 134.366 9.11041C134.758 9.41954 133.988 9.41502 134.444 9.77605C136.802 11.7143 138.984 13.665 141.619 15.4464C141.575 15.5615 141.508 15.5096 141.388 15.4893C142.273 15.962 142.924 16.4764 143.744 16.8972C143.828 17.115 143.728 17.2617 143.681 17.3756C143.753 17.1951 146.264 18.9043 147.339 19.6828C146.448 19.6467 145.732 19.7065 144.978 19.5384L144.017 19.8193C139.243 19.764 120.387 20.1634 115.591 20.2085L115.779 20.1634C108.472 20.3033 93.4734 20.2819 85.9216 20.6688C84.754 20.3924 83.1424 20.4578 81.9237 20.38C82.6009 20.4951 82.3693 20.6914 81.8406 20.6801C78.1286 20.6485 81.5899 20.8708 77.8347 20.9892C73.511 21.2465 56.9651 20.9543 53.1269 20.7185C51.0648 21.1258 48.4917 20.8177 46.4727 21.075L46.6756 20.9791C44.5065 21.1325 32.2269 20.7546 29.7064 20.9001L30.045 20.9588C27.8472 21.2115 28.1459 20.7658 26.4145 20.6271C26.6429 21.084 24.7581 21.3435 24.0393 21.3785L24.0665 21.2781C22.9836 21.3548 20.5286 21.7519 18.7397 21.8139L18.81 21.5635C17.3165 21.8365 14.5118 21.7248 13.4384 21.7519Z" fill="#262626"/>
<path d="M132.988 8.46984C133 8.10994 132.851 7.84365 132.475 7.61914C132.401 7.95083 132.713 8.21035 132.988 8.46984Z" fill="#262626"/>
<path d="M132.991 8.47909L132.999 8.48023L132.991 8.46973V8.47909Z" fill="#262626"/>
</svg>
